<svg width="40" height="40" viewBox="0 0 40 40" fill="none" xmlns="http://www.w3.org/2000/svg">
<path d="M24.5 14.0001H21.5C20.9477 14.0001 20.5 14.4478 20.5 15.0001V18.0001H24.5C24.6137 17.9976 24.7216 18.0505 24.7892 18.142C24.8568 18.2335 24.8758 18.3521 24.84 18.4601L24.1 20.6601C24.0318 20.862 23.8431 20.9985 23.63 21.0001H20.5V28.5001C20.5 28.7762 20.2761 29.0001 20 29.0001H17.5C17.2239 29.0001 17 28.7762 17 28.5001V21.0001H15.5C15.2239 21.0001 15 20.7762 15 20.5001V18.5001C15 18.224 15.2239 18.0001 15.5 18.0001H17V15.0001C17 12.791 18.7909 11.0001 21 11.0001H24.5C24.7761 11.0001 25 11.224 25 11.5001V13.5001C25 13.7763 24.7761 14.0001 24.5 14.0001Z" fill="#FCFCFC"/>
</svg>
