<svg width="40" height="40" viewBox="0 0 40 40" fill="none" xmlns="http://www.w3.org/2000/svg">
<path fill-rule="evenodd" clip-rule="evenodd" d="M24 11.0001H16C13.2386 11.0001 11 13.2387 11 16.0001V24.0001C11 26.7615 13.2386 29.0001 16 29.0001H24C26.7614 29.0001 29 26.7615 29 24.0001V16.0001C29 13.2387 26.7614 11.0001 24 11.0001ZM27.25 24.0001C27.2445 25.7927 25.7926 27.2446 24 27.2501H16C14.2074 27.2446 12.7555 25.7927 12.75 24.0001V16.0001C12.7555 14.2075 14.2074 12.7556 16 12.7501H24C25.7926 12.7556 27.2445 14.2075 27.25 16.0001V24.0001ZM24.75 16.2501C25.3023 16.2501 25.75 15.8024 25.75 15.2501C25.75 14.6978 25.3023 14.2501 24.75 14.2501C24.1977 14.2501 23.75 14.6978 23.75 15.2501C23.75 15.8024 24.1977 16.2501 24.75 16.2501ZM20 15.5001C17.5147 15.5001 15.5 17.5148 15.5 20.0001C15.5 22.4854 17.5147 24.5001 20 24.5001C22.4853 24.5001 24.5 22.4854 24.5 20.0001C24.5027 18.8058 24.0294 17.6597 23.1849 16.8152C22.3404 15.9707 21.1943 15.4975 20 15.5001ZM17.25 20.0001C17.25 21.5189 18.4812 22.7501 20 22.7501C21.5188 22.7501 22.75 21.5189 22.75 20.0001C22.75 18.4813 21.5188 17.2501 20 17.2501C18.4812 17.2501 17.25 18.4813 17.25 20.0001Z" fill="#FCFCFC"/>
</svg>
