<svg width="40" height="40" viewBox="0 0 40 40" fill="none" xmlns="http://www.w3.org/2000/svg">
<path fill-rule="evenodd" clip-rule="evenodd" d="M13 11.0001H27C28.1046 11.0001 29 11.8956 29 13.0001V27.0001C29 28.1047 28.1046 29.0001 27 29.0001H13C11.8954 29.0001 11 28.1047 11 27.0001V13.0001C11 11.8956 11.8954 11.0001 13 11.0001ZM16 26.0001C16.2761 26.0001 16.5 25.7762 16.5 25.5001V18.5001C16.5 18.224 16.2761 18.0001 16 18.0001H14.5C14.2239 18.0001 14 18.224 14 18.5001V25.5001C14 25.7762 14.2239 26.0001 14.5 26.0001H16ZM15.25 17.0001C14.4216 17.0001 13.75 16.3286 13.75 15.5001C13.75 14.6717 14.4216 14.0001 15.25 14.0001C16.0784 14.0001 16.75 14.6717 16.75 15.5001C16.75 16.3286 16.0784 17.0001 15.25 17.0001ZM25.5 26.0001C25.7761 26.0001 26 25.7762 26 25.5001V20.9001C26.0325 19.3109 24.8576 17.9546 23.28 17.7601C22.177 17.6594 21.1083 18.1745 20.5 19.1001V18.5001C20.5 18.224 20.2761 18.0001 20 18.0001H18.5C18.2239 18.0001 18 18.224 18 18.5001V25.5001C18 25.7762 18.2239 26.0001 18.5 26.0001H20C20.2761 26.0001 20.5 25.7762 20.5 25.5001V21.7501C20.5 20.9217 21.1716 20.2501 22 20.2501C22.8284 20.2501 23.5 20.9217 23.5 21.7501V25.5001C23.5 25.7762 23.7239 26.0001 24 26.0001H25.5Z" fill="#FCFCFC"/>
</svg>
