<svg width="117" height="31" viewBox="0 0 117 31" fill="none" xmlns="http://www.w3.org/2000/svg">
<path d="M32.7467 13.0615V25.3084V30.4372H38.8481V25.3084V8.02124H32.7467V13.0615Z" fill="#023535"/>
<path d="M59.3184 24.0263C58.316 25.1759 56.8714 25.7507 54.9854 25.7507C53.7766 25.7507 52.745 25.4929 51.8905 24.9768C51.0353 24.4615 50.3872 23.7168 49.9452 22.7442C49.503 21.7714 49.2819 20.5776 49.2819 19.1629C49.2819 17.1291 49.7752 15.5451 50.7631 14.4101C51.7503 13.2755 53.1575 12.7077 54.9854 12.7077C56.2233 12.7077 57.277 12.9661 58.1466 13.4815C59.0157 13.9976 59.6789 14.7346 60.1363 15.6922C60.593 16.6504 60.8216 17.8075 60.8216 19.1629C60.8216 21.256 60.3199 22.8767 59.3184 24.0263ZM61.529 9.08218C59.7307 8.10956 57.5643 7.62329 55.0296 7.62329C52.4653 7.62329 50.2913 8.10956 48.5082 9.08218C46.7245 10.055 45.376 11.4187 44.4628 13.172C43.5488 14.926 43.0922 16.9233 43.0922 19.1629C43.0922 21.4618 43.5488 23.4889 44.4628 25.2421C45.376 26.9961 46.7245 28.3667 48.5082 29.354C50.2913 30.3419 52.4653 30.8351 55.0296 30.8351C57.5643 30.8351 59.7307 30.3419 61.529 29.354C63.3265 28.3667 64.6902 26.9961 65.6187 25.2421C66.5472 23.4889 67.0113 21.4618 67.0113 19.1629C67.0113 16.9233 66.5472 14.926 65.6187 13.172C64.6902 11.4187 63.3265 10.055 61.529 9.08218Z" fill="#023535"/>
<path d="M86.2017 21.0449L76.9723 9.1912C76.5418 8.65373 76.0793 8.25027 75.5848 7.9811C75.0897 7.71222 74.5626 7.57764 74.0036 7.57764C73.0566 7.57764 72.2771 7.88978 71.6639 8.51341C71.0508 9.13777 70.7441 10.0518 70.7441 11.2564V30.4894H76.8755V18.0043L85.4917 29.0697L85.5561 29.1664C86.008 29.6827 86.5349 30.086 87.1375 30.3765C87.7394 30.6671 88.342 30.8122 88.9445 30.8122C89.9338 30.8122 90.7461 30.5001 91.3809 29.8762C92.0152 29.2526 92.3329 28.3813 92.3329 27.2624V7.90037H86.2017V21.0449Z" fill="#023535"/>
<path d="M111.873 19.2293C114.222 15.1233 116.066 11.3559 116.141 11.1824C116.288 10.8438 116.362 10.4827 116.362 10.0992C116.362 9.45107 116.156 8.94289 115.743 8.57373C115.33 8.20572 114.623 8.02124 113.621 8.02124H110.585H97.0267V12.9289H109.055L105.363 19.2293H100.813C99.5448 21.6869 98.3961 23.8798 97.6364 25.3239C96.7598 26.9902 96.4131 27.5547 96.4131 28.2706C96.4131 28.8897 96.5898 29.4059 96.9435 29.8181C97.2972 30.2313 97.9163 30.4372 98.8004 30.4372H101.837H116.147V25.5295H103.569L107.219 19.2293H111.873Z" fill="#023535"/>
<path d="M19.2721 2.64355C18.7661 2.00672 18.1994 1.57043 17.5712 1.33476C16.9423 1.09977 16.1777 0.981445 15.2761 0.981445C14.3469 0.981445 13.5682 1.09977 12.9399 1.33476C12.3112 1.57043 11.7444 2.00672 11.2392 2.64355C10.7332 3.28097 10.2761 4.19476 9.86621 5.38555L0.890625 30.4373H7.61204L9.59256 24.3715H9.59616L9.83157 23.6396L11.8537 17.4462L15.2761 6.96422L19.1275 18.8875H15.2112L13.3962 24.3715H20.8989L22.8582 30.4373H29.5796L20.6859 5.38555C20.2486 4.19476 19.7773 3.28097 19.2721 2.64355Z" fill="#023535"/>
</svg>
