<svg width="179" height="48" viewBox="0 0 179 48" fill="none" xmlns="http://www.w3.org/2000/svg">
<path d="M49.302 19.4743V38.3527V46.2587H58.7072V38.3527V11.7048H49.302V19.4743Z" fill="#FFFFD4"/>
<path d="M90.2621 36.3764C88.7169 38.1485 86.4902 39.0344 83.583 39.0344C81.7195 39.0344 80.1295 38.6371 78.8122 37.8415C77.494 37.0472 76.495 35.8993 75.8136 34.4C75.132 32.9004 74.7911 31.0603 74.7911 28.8795C74.7911 25.7444 75.5515 23.3027 77.0744 21.5532C78.5961 19.8042 80.7653 18.929 83.583 18.929C85.4911 18.929 87.1154 19.3273 88.4559 20.1218C89.7956 20.9172 90.8179 22.0534 91.5229 23.5295C92.2269 25.0066 92.5794 26.7902 92.5794 28.8795C92.5794 32.1061 91.806 34.6043 90.2621 36.3764ZM93.6697 13.3403C90.8977 11.841 87.5583 11.0914 83.6511 11.0914C79.6983 11.0914 76.3471 11.841 73.5984 13.3403C70.849 14.8399 68.7703 16.942 67.3626 19.6446C65.9537 22.3484 65.2498 25.4271 65.2498 28.8795C65.2498 32.4233 65.9537 35.5479 67.3626 38.2504C68.7703 40.9542 70.849 43.0669 73.5984 44.5889C76.3471 46.1118 79.6983 46.872 83.6511 46.872C87.5583 46.872 90.8977 46.1118 93.6697 44.5889C96.4405 43.0669 98.5427 40.9542 99.974 38.2504C101.405 35.5479 102.121 32.4233 102.121 28.8795C102.121 25.4271 101.405 22.3484 99.974 19.6446C98.5427 16.942 96.4405 14.8399 93.6697 13.3403Z" fill="#FFFFD4"/>
<path d="M131.702 31.7805L117.475 13.5083C116.811 12.6798 116.099 12.0578 115.336 11.6429C114.573 11.2285 113.761 11.021 112.899 11.021C111.439 11.021 110.238 11.5022 109.292 12.4635C108.347 13.4259 107.875 14.8349 107.875 16.6917V46.3391H117.326V27.0935L130.608 44.1506L130.707 44.2996C131.403 45.0956 132.216 45.7173 133.145 46.165C134.072 46.6129 135.001 46.8365 135.93 46.8365C137.455 46.8365 138.707 46.3555 139.686 45.3938C140.663 44.4325 141.153 43.0895 141.153 41.3647V11.5185H131.702V31.7805Z" fill="#FFFFD4"/>
<path d="M171.274 28.9819C174.894 22.6526 177.737 16.8452 177.853 16.5778C178.08 16.0558 178.194 15.4991 178.194 14.908C178.194 13.9089 177.875 13.1255 177.24 12.5565C176.603 11.9892 175.512 11.7048 173.968 11.7048H169.288H148.388V19.2699H166.929L161.239 28.9819H154.225C152.27 32.7702 150.499 36.1504 149.328 38.3766C147.977 40.9451 147.442 41.8153 147.442 42.9189C147.442 43.8731 147.715 44.6689 148.26 45.3043C148.805 45.9412 149.76 46.2586 151.122 46.2586H155.803H177.861V38.6935H158.474L164.099 28.9819H171.274Z" fill="#FFFFD4"/>
<path d="M28.5315 3.41513C27.7515 2.43347 26.8779 1.76094 25.9096 1.39766C24.9401 1.03542 23.7615 0.853027 22.3718 0.853027C20.9393 0.853027 19.7391 1.03542 18.7706 1.39766C17.8013 1.76094 16.9276 2.43347 16.1489 3.41513C15.3689 4.3977 14.6643 5.80628 14.0325 7.64186L0.196777 46.2587H10.5577L13.6106 36.9084H13.6162L13.9791 35.7801L17.0961 26.2331L22.3718 10.0754L28.3086 28.4548H22.2717L19.4738 36.9084H31.0391L34.0594 46.2587H44.4203L30.7109 7.64186C30.0367 5.80628 29.3103 4.3977 28.5315 3.41513Z" fill="#FFFFD4"/>
</svg>
