<svg width="18" height="18" viewBox="0 0 18 18" fill="none" xmlns="http://www.w3.org/2000/svg">
<path d="M4.62397 9.50106L4.62401 9.50103C4.62029 9.49591 4.61584 9.48982 4.6107 9.4828C4.52781 9.36945 4.2666 9.0123 4.02015 8.52636C3.76035 8.0141 3.50468 7.33548 3.50468 6.62988C3.50468 5.26619 4.18811 4.57122 4.4785 4.27592C4.48637 4.26792 4.49395 4.26022 4.50121 4.2528C4.78768 3.95962 5.23004 3.85007 5.61217 3.85007C5.73046 3.85007 5.83635 3.85559 5.92686 3.86083C5.92763 3.86088 5.92841 3.86092 5.92918 3.86097L4.62397 9.50106ZM4.62397 9.50106L4.6273 9.50546M4.62397 9.50106L4.6273 9.50546M4.6273 9.50546C4.63517 9.51583 4.65091 9.53879 4.6743 9.5729C4.98823 10.0306 6.67999 12.4971 9.21797 13.5484C10.2608 13.9806 10.9532 14.1837 11.4536 14.2631C11.9654 14.3444 12.2707 14.295 12.5283 14.24L12.5288 14.2399M4.6273 9.50546L12.5288 14.2399M12.5288 14.2399C12.9073 14.1584 13.3262 13.9803 13.6819 13.7398C14.0328 13.5025 14.3553 13.1816 14.4908 12.7983L14.4909 12.7982M12.5288 14.2399L14.4909 12.7982M14.4909 12.7982C14.607 12.4697 14.6659 12.1631 14.6869 11.9194M14.4909 12.7982L14.6869 11.9194M14.0096 10.9152L14.0097 10.9153C14.0535 10.9372 14.0998 10.9596 14.1453 10.9815C14.2189 11.017 14.2902 11.0513 14.3447 11.0812C14.4347 11.1304 14.5529 11.2036 14.6242 11.3281L14.0096 10.9152ZM14.0096 10.9152C13.8764 10.8486 13.4878 10.6562 13.1017 10.4698C12.7285 10.2895 12.3314 10.1018 12.1881 10.0512M14.0096 10.9152L12.1881 10.0512M6.85192 8.02518L6.85184 8.02511L6.84809 8.02952C6.81723 8.06577 6.79523 8.09161 6.77639 8.11798C6.75779 8.14401 6.74924 8.16131 6.74526 8.17301C6.74204 8.18249 6.74104 8.19018 6.74236 8.20068C6.74385 8.2125 6.74963 8.23751 6.77324 8.2784C6.92382 8.53292 7.43538 9.36465 8.18019 10.0285C9.06876 10.819 9.79655 11.1133 10.1342 11.2498C10.1649 11.2622 10.1923 11.2733 10.2163 11.2834L6.85192 8.02518ZM6.85192 8.02518L6.85641 8.0196M6.85192 8.02518L6.85641 8.0196M6.85641 8.0196C6.9158 7.94591 6.97477 7.88193 7.03861 7.81416M6.85641 8.0196L7.03861 7.81416M14.6869 11.9194C14.6975 11.7978 14.6989 11.6881 14.692 11.5964M14.6869 11.9194L14.692 11.5964M14.692 11.5964C14.6862 11.5187 14.6722 11.4122 14.6243 11.3283L14.692 11.5964ZM12.1881 10.0512C12.0352 9.99394 11.8618 9.96669 11.6852 10.0128C11.5041 10.06 11.3532 10.1757 11.2346 10.3431M12.1881 10.0512L10.5537 11.2466C10.5536 11.2467 10.5535 11.2468 10.5534 11.2469C10.7124 11.0752 10.9068 10.8027 11.123 10.4993C11.1596 10.448 11.1968 10.3958 11.2346 10.3431M11.2346 10.3431C11.2347 10.3429 11.2349 10.3426 11.2351 10.3424L11.4518 10.4977L11.2342 10.3437C11.2343 10.3435 11.2345 10.3433 11.2346 10.3431ZM7.03861 7.81416C7.0475 7.80473 7.05654 7.79515 7.06572 7.78544M7.03861 7.81416L7.06572 7.78544M7.06572 7.78544C7.12106 7.72687 7.18126 7.66315 7.24216 7.59248L7.06572 7.78544ZM1.9666 14.3602L2.01036 14.2296L1.92933 14.1184C0.882479 12.6809 0.266667 10.9102 0.266667 9.00013C0.266667 4.1856 4.18119 0.268835 8.9937 0.26679L8.9951 0.266829L8.99509 0.266938H9.00269C13.8169 0.266938 17.7335 4.1845 17.7335 9.00029C17.7335 13.8159 13.8169 17.7336 9.00269 17.7336C7.22637 17.7336 5.57937 17.205 4.19889 16.2912L4.09229 16.2207L3.97052 16.2596L1.01254 17.205L1.9666 14.3602ZM6.73125 4.46968L6.73096 4.46898L7.24224 7.59239C7.2519 7.58119 7.26138 7.57025 7.27069 7.55949C7.3861 7.42625 7.47657 7.32179 7.57058 7.12311C7.72008 6.82778 7.60108 6.54213 7.53459 6.40348L7.29414 6.51878L7.53459 6.40348C7.49119 6.31296 7.19883 5.60355 6.95873 5.02094C6.87104 4.80817 6.79032 4.61231 6.73125 4.46968Z" fill="#FFFFD4" stroke="#FFFFD4" stroke-width="0.533333"/>
</svg>
