<svg width="24" height="24" viewBox="0 0 24 24" fill="none" xmlns="http://www.w3.org/2000/svg">
<path d="M7.62397 12.5011L7.62401 12.501C7.62029 12.4959 7.61584 12.4898 7.6107 12.4828C7.52781 12.3695 7.2666 12.0123 7.02015 11.5264C6.76035 11.0141 6.50468 10.3355 6.50468 9.62988C6.50468 8.26619 7.18811 7.57122 7.4785 7.27592C7.48637 7.26792 7.49395 7.26022 7.50121 7.2528C7.78768 6.95962 8.23004 6.85007 8.61217 6.85007C8.73046 6.85007 8.83635 6.85559 8.92686 6.86083C8.92763 6.86088 8.92841 6.86092 8.92918 6.86097L7.62397 12.5011ZM7.62397 12.5011L7.6273 12.5055M7.62397 12.5011L7.6273 12.5055M7.6273 12.5055C7.63517 12.5158 7.65091 12.5388 7.6743 12.5729C7.98823 13.0306 9.67999 15.4971 12.218 16.5484C13.2608 16.9806 13.9532 17.1837 14.4536 17.2631C14.9654 17.3444 15.2707 17.295 15.5283 17.24L15.5288 17.2399M7.6273 12.5055L15.5288 17.2399M15.5288 17.2399C15.9073 17.1584 16.3262 16.9803 16.6819 16.7398C17.0328 16.5025 17.3553 16.1816 17.4908 15.7983L17.4909 15.7982M15.5288 17.2399L17.4909 15.7982M17.4909 15.7982C17.607 15.4697 17.6659 15.1631 17.6869 14.9194M17.4909 15.7982L17.6869 14.9194M17.0096 13.9152L17.0097 13.9153C17.0535 13.9372 17.0998 13.9596 17.1453 13.9815C17.2189 14.017 17.2902 14.0513 17.3447 14.0812C17.4347 14.1304 17.5529 14.2036 17.6242 14.3281L17.0096 13.9152ZM17.0096 13.9152C16.8764 13.8486 16.4878 13.6562 16.1017 13.4698C15.7285 13.2895 15.3314 13.1018 15.1881 13.0512M17.0096 13.9152L15.1881 13.0512M9.85192 11.0252L9.85184 11.0251L9.84809 11.0295C9.81723 11.0658 9.79523 11.0916 9.77639 11.118C9.75779 11.144 9.74924 11.1613 9.74526 11.173C9.74204 11.1825 9.74104 11.1902 9.74236 11.2007C9.74385 11.2125 9.74963 11.2375 9.77324 11.2784C9.92382 11.5329 10.4354 12.3647 11.1802 13.0285C12.0688 13.819 12.7965 14.1133 13.1342 14.2498C13.1649 14.2622 13.1923 14.2733 13.2163 14.2834L9.85192 11.0252ZM9.85192 11.0252L9.85641 11.0196M9.85192 11.0252L9.85641 11.0196M9.85641 11.0196C9.9158 10.9459 9.97477 10.8819 10.0386 10.8142M9.85641 11.0196L10.0386 10.8142M17.6869 14.9194C17.6975 14.7978 17.6989 14.6881 17.692 14.5964M17.6869 14.9194L17.692 14.5964M17.692 14.5964C17.6862 14.5187 17.6722 14.4122 17.6243 14.3283L17.692 14.5964ZM15.1881 13.0512C15.0352 12.9939 14.8618 12.9667 14.6852 13.0128C14.5041 13.06 14.3532 13.1757 14.2346 13.3431M15.1881 13.0512L13.5537 14.2466C13.5536 14.2467 13.5535 14.2468 13.5534 14.2469C13.7124 14.0752 13.9068 13.8027 14.123 13.4993C14.1596 13.448 14.1968 13.3958 14.2346 13.3431M14.2346 13.3431C14.2347 13.3429 14.2349 13.3426 14.2351 13.3424L14.4518 13.4977L14.2342 13.3437C14.2343 13.3435 14.2345 13.3433 14.2346 13.3431ZM10.0386 10.8142C10.0475 10.8047 10.0565 10.7952 10.0657 10.7854M10.0386 10.8142L10.0657 10.7854M10.0657 10.7854C10.1211 10.7269 10.1813 10.6632 10.2422 10.5925L10.0657 10.7854ZM4.9666 17.3602L5.01036 17.2296L4.92933 17.1184C3.88248 15.6809 3.26667 13.9102 3.26667 12.0001C3.26667 7.1856 7.18119 3.26884 11.9937 3.26679L11.9951 3.26683L11.9951 3.26694H12.0027C16.8169 3.26694 20.7335 7.1845 20.7335 12.0003C20.7335 16.8159 16.8169 20.7336 12.0027 20.7336C10.2264 20.7336 8.57937 20.205 7.19889 19.2912L7.09229 19.2207L6.97052 19.2596L4.01254 20.205L4.9666 17.3602ZM9.73125 7.46968L9.73096 7.46898L10.2422 10.5924C10.2519 10.5812 10.2614 10.5702 10.2707 10.5595C10.3861 10.4262 10.4766 10.3218 10.5706 10.1231C10.7201 9.82778 10.6011 9.54213 10.5346 9.40348L10.2941 9.51878L10.5346 9.40348C10.4912 9.31296 10.1988 8.60355 9.95873 8.02094C9.87104 7.80817 9.79032 7.61231 9.73125 7.46968Z" fill="#FFFFD4" stroke="#FFFFD4" stroke-width="0.533333"/>
</svg>
